# xmcd CD database file
#
# Track frame offsets:
#	150
#	17498
#	35806
#	53874
#	71638
#
# Disc length: 1235 seconds
#
# Revision: 1
# Processed by: cddbd v1.5.2PL0 Copyright (c) Steve Scherf et al.
# Submitted via: CDex 1.73
#
DISCID=3f04d105
DTITLE=Badge feat. Blind Dog Mayer - They Call Me...
DYEAR=2015
DGENRE=Blues
TTITLE0=Just Your Fool
TTITLE1=(they Call Me) Blind Dog
TTITLE2=Everyday I Have The Blues
TTITLE3=Sthe Sky Is Crying
TTITLE4=Way Past Midnight
EXTD=YEAR: 2015
EXTT0=
EXTT1=
EXTT2=
EXTT3=
EXTT4=
PLAYORDER=
